<?xml version="1.0" encoding="UTF-8"?>
<svg width="286px" height="308px" viewBox="0 0 286 308" version="1.1" xmlns="http://www.w3.org/2000/svg" xmlns:xlink="http://www.w3.org/1999/xlink">
    <!-- Generator: Sketch 48.1 (47250) - http://www.bohemiancoding.com/sketch -->
    <title>grad</title>
    <desc>Created with Sketch.</desc>
    <defs></defs>
    <g id="Assets" stroke="none" stroke-width="1" fill="none" fill-rule="evenodd">
        <g id="grad" fill-rule="nonzero">
            <path d="M143,102.971976 C117.38322,102.971976 95.3333333,96.7787611 83.0113379,87 L83.6598639,101.668142 C83.6598639,101.668142 77.4988662,98.4085546 77.8231293,105.579646 C77.8231293,111.120944 78.1473923,140.783186 89.1723356,140.783186 C89.1723356,140.783186 93.0634921,165.882006 105.385488,175.660767 L105.385488,199.129794 L23.0226757,236.289086 C23.0226757,236.289086 4.2154195,245.415929 2.26984127,266.603245 C0,288.116519 0,308 0,308 L143,308" id="Shape" fill="#146480"></path>
            <path d="M143,102.971976 C168.675,102.971976 190.775,96.7787611 203.125,87 L202.475,101.668142 C202.475,101.668142 208.65,98.4085546 208.325,105.579646 C208.325,111.120944 208,140.783186 196.95,140.783186 C196.95,140.783186 193.05,165.882006 180.7,175.660767 L180.7,199.129794 L262.925,236.289086 C262.925,236.289086 281.775,245.415929 283.725,266.603245 C286,287.79056 286,308 286,308 L143,308" id="Shape" fill="#3099BD"></path>
            <path d="M143,74.9016393 C136.832461,74.9016393 118.979058,69.147541 118.979058,69.147541 L81,57 L81,75.5409836 C87.8167539,87.0491803 113.460733,96 143,96 C143,96 143,96 143,96" id="Shape" fill="#146480"></path>
            <path d="M143,74.9016393 C149.167539,74.9016393 167.020942,69.147541 167.020942,69.147541 L205,57 L205,75.5409836 C198.183246,87.0491803 172.539267,96 143,96 C143,96 143,96 143,96" id="Shape" fill="#3099BD"></path>
            <path d="M143,0 C140.085582,0 136.84734,0.322274882 133.932922,1.28909953 L40.6715497,30.9383886 C37.1094834,32.2274882 37.1094834,35.7725118 40.6715497,37.0616114 L133.932922,66.7109005 C136.84734,67.6777251 139.761758,68 143,68 L143,0 Z" id="Shape" fill="#146480"></path>
            <path d="M143,0 C145.914418,0 149.15266,0.322274882 151.743254,1.28909953 L245.32845,30.9383886 C248.890517,32.2274882 248.890517,35.7725118 245.32845,37.0616114 L152.067078,66.7109005 C149.15266,67.6777251 146.238242,68 143,68 L143,0 Z" id="Shape" fill="#3099BD"></path>
            <path d="M226.512903,96.2580645 C228.190323,95.6021505 229.196774,93.9623656 229.196774,91.9946237 C229.196774,90.0268817 227.854839,88.3870968 226.177419,87.7311828 L226.177419,51 L222.822581,51.983871 L222.822581,87.7311828 C221.145161,88.3870968 219.803226,90.0268817 219.803226,91.9946237 C219.803226,93.9623656 220.809677,95.2741935 222.487097,96.2580645 L218.125806,108.392473 C217.790323,109.376344 218.125806,110.360215 219.132258,110.688172 C220.474194,111.344086 222.151613,112 224.5,112 C226.512903,112 228.525806,111.344086 229.867742,110.688172 C230.874194,110.360215 231.209677,109.376344 230.874194,108.392473 L226.512903,96.2580645 Z" id="Shape" fill="#3099BD"></path>
        </g>
    </g>
</svg>