<?xml version="1.0" encoding="UTF-8"?>
<svg width="325px" height="332px" viewBox="0 0 325 332" version="1.1" xmlns="http://www.w3.org/2000/svg" xmlns:xlink="http://www.w3.org/1999/xlink">
    <!-- Generator: Sketch 48.1 (47250) - http://www.bohemiancoding.com/sketch -->
    <title>wi-map</title>
    <desc>Created with Sketch.</desc>
    <defs></defs>
    <g id="Assets" stroke="none" stroke-width="1" fill="none" fill-rule="evenodd">
        <g id="wi-map" transform="translate(2.000000, 2.000000)">
            <g id="Group" stroke="#3099BD" stroke-width="4">
                <path d="M29.968538,58.5709319 L29.968538,22.7262606 C29.968538,20.3242981 32.0034388,18.2918683 34.4083215,18.2918683 C35.7032583,18.2918683 36.8132041,17.7375693 37.738159,16.8137375 L39.7730598,14.5965414 C41.2529876,13.1184106 43.4728793,12.7488779 45.322789,13.6727097 L47.3576898,14.7813077 C49.5775815,16.0746722 52.3524461,16.8137375 54.9423197,16.9985039 L55.1273107,16.9985039 C57.7171844,16.9985039 60.307058,16.4442049 62.5269497,15.3356068 L82.5059751,5.17345771 C84.9108578,3.88009328 87.6857224,3.51056059 90.4605871,4.06485963 C92.1255058,4.43439232 93.7904246,4.43439232 95.2703524,4.06485963 L113.76945,0.369532693 C115.064387,0.184766347 116.359324,0.184766347 117.469269,0.739065387 L118.949197,1.29336443 C121.909053,2.40196251 123.20399,5.72775675 121.724062,8.49925195 C121.169089,9.42308368 120.244134,10.1621491 119.319179,10.3469154 L110.809594,11.8250462 C109.514658,12.0098125 108.404712,12.9336443 108.03473,14.2270087 L106.739793,18.2918683 C105.814838,21.0633635 108.589703,23.6500924 111.364567,22.5414943 C112.104531,22.1719616 113.029486,22.1719616 113.954441,22.5414943 L134.303448,30.3016809 C134.67343,30.4864472 135.043412,30.6712135 135.228403,31.0407462 L138.928223,36.9532693 C141.333105,40.6485963 144.847934,43.4200915 149.102726,44.5286895 L192.020633,56.5385021 C194.055533,57.0928011 196.090434,57.8318665 198.125335,58.9404646 L210.149748,64.8529877 C214.589532,67.0701838 219.399297,68.1787819 224.394053,68.5483146 L234.568557,68.9178473 C239.563313,69.1026136 243.818106,72.2436415 245.668016,76.8628002 C246.777961,79.6342954 248.812862,81.8514916 251.217745,83.3296223 L253.622628,84.6229868 C257.87742,87.0249493 260.467294,91.6441079 260.097312,96.448033 L259.357348,107.534014 C259.172357,110.675042 261.392249,113.26177 264.352104,113.631303 C268.236915,114.185602 270.641797,118.250462 268.976879,121.761022 L267.31196,125.271583 C266.941978,126.195415 266.941978,127.119246 267.496951,128.043078 L271.381761,135.064199 C271.936734,136.172797 271.936734,137.466162 271.011779,138.389994 L263.242158,147.443545 C262.687185,147.997844 262.502194,148.736909 262.502194,149.475974 L262.502194,152.617002 C262.502194,153.356068 262.132212,154.095133 261.76223,154.649432 L257.137456,159.453357 C254.732573,161.85532 253.252646,165.181114 252.697673,168.506908 L252.512682,169.615506 C252.1427,172.017469 254.732573,173.680366 256.767474,172.756534 L259.72733,171.278403 C260.837276,170.724104 261.577239,169.985039 262.132212,168.876441 L269.34686,155.75803 C269.531851,155.388498 269.901833,155.018965 270.456806,154.649432 L277.856445,150.030273 C278.226427,149.845507 278.596409,149.475974 278.966391,148.921675 L283.591166,140.60719 C283.591166,140.422423 283.776157,140.422423 283.776157,140.237657 L285.996048,134.694667 C287.105994,131.738405 288.770913,129.151676 290.990805,126.93448 L295.615579,122.315321 C295.80057,122.130555 295.985561,121.945789 295.985561,121.761022 L298.020462,116.957097 C298.575435,115.663733 299.68538,114.924668 301.165308,115.109434 L303.015218,115.109434 C304.680137,115.109434 306.160065,116.587565 306.160065,118.250462 L306.160065,121.761022 C306.160065,122.869621 305.975074,123.978219 305.420101,125.086817 L303.200209,129.336443 C302.830227,130.260274 302.460245,131.184106 302.645236,132.107938 L302.645236,132.662237 C302.830227,134.140368 302.275254,135.433732 301.350299,136.54233 L296.910516,141.531022 C295.615579,143.009152 295.060606,144.856816 295.060606,146.704479 C295.060606,148.736909 294.320642,150.769339 292.840714,152.24747 L290.620823,154.464666 C289.695868,155.388498 289.140895,156.497096 288.770913,157.605694 L280.446319,183.842515 C279.336373,186.983543 279.336373,190.494103 280.076337,193.819898 L280.446319,195.298028 C281.186283,198.623823 280.261328,202.31915 277.856445,204.721112 C274.156626,208.785972 271.566752,213.774663 270.641797,219.132887 C270.271815,221.350083 270.086824,223.752046 270.271815,226.154008 L271.566752,244.815409 C271.566752,245.924007 271.381761,247.217372 271.011779,248.141204 L264.537095,264.031109 C262.872176,268.095969 262.502194,272.345595 263.427149,276.595221 L263.797131,278.627651 C264.167113,280.844847 264.352104,283.062043 264.167113,285.279239 L263.427149,291.930828 C263.242158,293.408958 263.427149,295.071856 264.167113,296.36522 L268.421906,306.157836 C268.976879,307.635967 269.34686,309.114098 269.161869,310.592229 L268.236915,319.830546 C267.866933,324.449705 263.982122,327.960265 259.172357,327.960265 L120.984098,327.960265 C115.434369,327.960265 110.254621,325.558303 106.554802,321.493443 C105.074874,319.64578 103.224964,318.167649 101.005073,317.059051 L95.6403344,314.287556 C90.645578,311.700827 87.1307495,307.081668 86.0208036,301.538678 L84.7258668,295.441388 C84.3558849,293.963258 84.1708939,292.485127 84.1708939,290.82223 L84.1708939,287.865968 C84.1708939,283.801108 85.2808397,279.921015 87.3157405,276.595221 L88.4256863,274.747557 C88.7956683,274.193258 88.9806593,273.454193 88.9806593,272.715128 C89.1656502,270.682698 87.8707134,268.835034 85.8358127,268.280735 L85.2808397,268.095969 C83.615921,267.726436 82.5059751,266.433072 82.1359932,264.770175 L80.2860834,255.531857 C79.9161015,253.314661 79.7311105,251.282231 79.7311105,249.065035 L80.4710744,236.68569 C80.6560654,232.436064 78.8061556,228.371204 75.661309,225.599709 L54.0173649,208.046906 C51.7974732,206.199243 50.3175454,203.79728 49.5775815,201.025785 C48.8376176,198.439056 47.3576898,196.037094 45.322789,194.18943 L26.4537095,178.299525 C24.4188088,176.636627 22.1989171,175.528029 19.6090434,174.788964 L15.16926,173.680366 C12.0244134,172.9413 9.24954878,171.278403 7.02965707,168.876441 L5.17974732,167.028777 C0.924954878,162.409619 -0.369981951,155.942797 1.84990976,150.21504 L3.32983756,147.813077 C3.51482854,147.443545 3.69981951,147.074012 3.88481049,146.889246 L4.80976537,145.780648 C6.10470219,144.11775 5.91971122,141.900554 4.43978341,140.60719 C3.32983756,139.683358 2.95985561,138.205227 3.32983756,136.727097 L5.54972927,129.151676 L10.5444856,113.077004 C10.7294766,112.337939 10.7294766,111.598873 10.5444856,110.859808 L7.39963902,101.067192 C7.02965707,99.5890608 5.73472024,98.4804628 4.06980146,98.2956964 C1.84990976,98.1109301 0.369981951,96.0785003 0.554972927,94.0460704 L0.739963902,92.0136406 C1.10994585,89.4269118 2.40488268,87.2097156 4.62477439,85.7315848 C6.28969317,84.8077531 7.58463,83.144856 8.13960293,81.2971925 L9.43453975,77.2323329 C10.1745037,75.1999031 11.8394224,73.537006 13.8743232,72.7979406 C14.6142871,72.6131742 15.354251,72.0588752 16.0942149,71.5045762 L22.383908,66.5158848 C23.1238719,65.9615858 23.8638359,65.4072867 24.7887907,65.2225204 C27.9336373,64.483455 29.968538,61.7119598 29.968538,58.5709319 Z" id="Shape"></path>
                <path d="M316.889541,96.2632666 L307.27001,97.002332 C306.530047,97.002332 305.790083,97.556631 305.605092,98.2956964 L304.310155,102.545322 C304.125164,103.099621 304.310155,103.838687 304.680137,104.20822 L309.304911,109.566444 C310.599848,111.044574 313.004731,109.935976 312.634749,107.903546 C312.449758,106.794948 313.189722,105.68635 314.484658,105.68635 L316.519559,105.68635 C317.259523,105.68635 317.814496,105.316818 318.184478,104.577752 L320.40437,99.9585935 C320.774352,99.2195282 320.589361,98.2956964 319.849397,97.7413974 L318.184478,96.448033 C317.814496,96.448033 317.444514,96.2632666 316.889541,96.2632666 Z" id="Shape"></path>
            </g>
            <path d="M52.7385826,109.415992 L56.6161412,121.06378 C56.6161412,121.248666 56.9854324,121.433551 57.1700781,121.433551 L69.3566907,121.433551 C69.9106277,121.433551 70.279919,122.173093 69.725982,122.542864 L59.7551171,129.7534 C59.5704715,129.938285 59.3858258,130.308056 59.5704715,130.492942 L63.4480301,142.14073 C63.6326757,142.695386 62.8940931,143.250043 62.3401562,142.880272 L52.3692913,135.669736 C52.1846456,135.484851 51.8153544,135.484851 51.6307087,135.669736 L41.6598438,142.880272 C41.1059069,143.250043 40.3673243,142.695386 40.5519699,142.14073 L44.4295285,130.492942 C44.4295285,130.308056 44.4295285,129.938285 44.2448829,129.7534 L34.274018,122.542864 C33.720081,122.173093 34.0893723,121.433551 34.6433093,121.433551 L46.8299219,121.433551 C47.1992132,121.433551 47.3838588,121.248666 47.3838588,121.06378 L51.2614174,109.415992 C51.6307087,108.861336 52.5539369,108.861336 52.7385826,109.415992 Z" id="Shape" fill="#F6A623" fill-rule="nonzero"></path>
            <g id="Group" transform="translate(21.000000, 160.000000)" fill="#3099BD" fill-rule="nonzero">
                <polygon id="Shape" points="6.57 7.64444444 6.57 1.42222222 4.5625 7.64444444 3.8325 7.64444444 1.825 1.42222222 1.825 7.64444444 0.73 7.64444444 0.73 0.533333333 2.7375 0.533333333 4.1975 5.15555556 5.6575 0.533333333 7.665 0.533333333 7.665 7.64444444"></polygon>
                <polygon id="Shape" points="9.855 7.64444444 9.855 0.533333333 14.6 0.533333333 14.6 1.6 11.1325 1.6 11.1325 3.55555556 13.87 3.55555556 13.87 4.44444444 11.1325 4.44444444 11.1325 6.4 14.6 6.4 14.6 7.46666667 9.855 7.46666667"></polygon>
                <path d="M21.535,7.64444444 L20.2575,7.64444444 L17.3375,3.02222222 C17.3375,2.84444444 16.9725,2.31111111 16.9725,2.31111111 L16.9725,7.64444444 L15.8775,7.64444444 L15.8775,0.533333333 L17.3375,0.533333333 L19.8925,4.8 C19.8925,4.8 20.075,5.15555556 20.2575,5.68888889 L20.2575,0.711111111 L21.3525,0.711111111 L21.3525,7.64444444 L21.535,7.64444444 Z" id="Shape"></path>
                <path d="M26.0975,7.64444444 C23.725,7.64444444 22.995,5.51111111 22.995,3.91111111 C22.995,1.95555556 24.09,0.355555556 26.0975,0.355555556 C28.105,0.355555556 29.2,2.13333333 29.2,4.08888889 C29.2,6.22222222 27.9225,7.64444444 26.0975,7.64444444 Z M27.375,2.13333333 C27.01,1.42222222 26.28,1.42222222 26.0975,1.42222222 C24.6375,1.42222222 24.455,2.84444444 24.455,4.08888889 C24.455,4.97777778 24.6375,6.75555556 26.0975,6.75555556 C26.8275,6.75555556 27.1925,6.4 27.5575,5.86666667 C27.74,5.51111111 27.9225,4.97777778 27.9225,4.08888889 C27.74,3.73333333 27.74,2.84444444 27.375,2.13333333 Z" id="Shape"></path>
                <polygon id="Shape" points="36.5 7.64444444 36.5 1.42222222 34.4925 7.64444444 33.7625 7.64444444 31.755 1.42222222 31.755 7.64444444 30.66 7.64444444 30.66 0.533333333 32.6675 0.533333333 34.1275 5.15555556 35.5875 0.533333333 37.595 0.533333333 37.595 7.64444444"></polygon>
                <path d="M42.34,7.64444444 C39.9675,7.64444444 39.2375,5.51111111 39.2375,3.91111111 C39.2375,1.95555556 40.3325,0.355555556 42.34,0.355555556 C44.3475,0.355555556 45.4425,2.13333333 45.4425,4.08888889 C45.4425,6.22222222 44.3475,7.64444444 42.34,7.64444444 Z M43.8,2.13333333 C43.435,1.42222222 42.705,1.42222222 42.5225,1.42222222 C41.0625,1.42222222 40.88,2.84444444 40.88,4.08888889 C40.88,4.97777778 41.0625,6.75555556 42.5225,6.75555556 C43.2525,6.75555556 43.6175,6.4 43.9825,5.86666667 C44.165,5.51111111 44.3475,4.97777778 44.3475,4.08888889 C44.165,3.73333333 44.165,2.84444444 43.8,2.13333333 Z" id="Shape"></path>
                <path d="M52.56,7.64444444 L51.2825,7.64444444 L48.3625,3.02222222 C48.3625,2.84444444 47.9975,2.31111111 47.9975,2.31111111 L47.9975,7.64444444 L46.9025,7.64444444 L46.9025,0.533333333 L48.3625,0.533333333 L50.9175,4.8 C50.9175,4.8 51.1,5.15555556 51.2825,5.68888889 L51.2825,0.711111111 L52.3775,0.711111111 L52.3775,7.64444444 L52.56,7.64444444 Z" id="Shape"></path>
                <polygon id="Shape" points="54.385 7.64444444 54.385 0.533333333 55.6625 0.533333333 55.6625 7.64444444"></polygon>
                <polygon id="Shape" points="57.67 7.64444444 57.67 0.533333333 62.415 0.533333333 62.415 1.6 58.9475 1.6 58.9475 3.55555556 61.685 3.55555556 61.685 4.44444444 58.9475 4.44444444 58.9475 6.4 62.415 6.4 62.415 7.46666667 57.67 7.46666667"></polygon>
            </g>
            <g id="Group" transform="translate(21.000000, 147.000000)" fill="#3099BD" fill-rule="nonzero">
                <path d="M7.4825,6.13888889 C7.4825,7.04166667 7.3,7.94444444 6.57,8.48611111 C5.84,9.02777778 4.9275,9.20833333 4.015,9.20833333 C3.285,9.20833333 2.19,9.02777778 1.46,8.66666667 C0.5475,8.125 0.365,7.22222222 0.365,6.31944444 L0.365,0.722222222 L3.1025,0.722222222 L3.1025,5.95833333 C3.1025,6.31944444 3.1025,6.68055556 3.285,6.86111111 C3.4675,7.22222222 3.8325,7.22222222 4.1975,7.22222222 C4.5625,7.22222222 4.9275,7.22222222 5.11,6.86111111 C5.475,6.5 5.475,6.13888889 5.475,5.77777778 L5.475,0.541666667 L7.4825,0.541666667 L7.4825,6.13888889 Z" id="Shape"></path>
                <polygon id="Shape" points="17.7025 9.20833333 15.5125 9.20833333 14.4175 4.51388889 14.4175 4.51388889 13.3225 9.20833333 10.95 9.20833333 8.5775 0.722222222 11.1325 0.722222222 12.2275 5.59722222 12.2275 5.59722222 13.3225 0.722222222 15.33 0.722222222 16.6075 5.59722222 16.6075 5.59722222 17.7025 0.722222222 20.075 0.722222222"></polygon>
                <polygon id="Shape" points="23.5425 6.86111111 20.44 6.86111111 20.44 4.875 23.5425 4.875"></polygon>
                <path d="M26.4625,6.31944444 C26.645,7.04166667 27.1925,7.40277778 28.105,7.40277778 C28.47,7.40277778 29.2,7.40277778 29.2,6.86111111 C29.2,6.31944444 28.47,6.31944444 28.105,6.13888889 C26.4625,5.77777778 24.6375,5.41666667 24.6375,3.43055556 C24.6375,2.52777778 25.0025,1.80555556 25.7325,1.26388889 C26.4625,0.722222222 27.375,0.541666667 28.105,0.541666667 C29.565,0.541666667 31.025,1.08333333 31.5725,2.52777778 L29.3825,3.25 C29.2,2.70833333 28.6525,2.34722222 27.9225,2.34722222 C27.5575,2.34722222 27.01,2.52777778 27.01,2.88888889 C27.01,3.25 27.5575,3.43055556 27.9225,3.43055556 C28.6525,3.61111111 29.565,3.79166667 30.295,4.15277778 C31.2075,4.51388889 31.5725,5.41666667 31.5725,6.31944444 C31.5725,8.30555556 29.565,9.20833333 27.74,9.20833333 C25.915,9.20833333 24.2725,8.48611111 23.9075,6.68055556 L26.4625,6.31944444 Z" id="Shape"></path>
                <polygon id="Shape" points="36.865 9.20833333 34.31 9.20833333 34.31 2.70833333 32.485 2.70833333 32.485 0.722222222 38.5075 0.722222222 38.5075 2.70833333 36.6825 2.70833333 36.6825 9.20833333"></polygon>
                <path d="M47.45,5.05555556 C47.45,7.40277778 45.99,9.38888889 43.435,9.38888889 C40.88,9.38888889 39.42,7.40277778 39.42,5.05555556 C39.42,2.52777778 40.88,0.722222222 43.435,0.722222222 C45.99,0.722222222 47.45,2.52777778 47.45,5.05555556 Z M42.1575,5.05555556 C42.1575,5.95833333 42.1575,7.40277778 43.435,7.40277778 C44.7125,7.40277778 44.7125,5.77777778 44.7125,5.05555556 C44.7125,4.15277778 44.53,2.52777778 43.435,2.52777778 C42.34,2.52777778 42.1575,4.15277778 42.1575,5.05555556 Z" id="Shape"></path>
                <path d="M55.6625,6.13888889 C55.6625,7.04166667 55.48,7.94444444 54.75,8.48611111 C54.02,9.02777778 53.1075,9.20833333 52.195,9.20833333 C51.465,9.20833333 50.37,9.02777778 49.64,8.66666667 C48.7275,8.125 48.545,7.22222222 48.545,6.31944444 L48.545,0.722222222 L51.2825,0.722222222 L51.2825,5.95833333 C51.2825,6.31944444 51.2825,6.68055556 51.465,6.86111111 C51.6475,7.22222222 52.0125,7.22222222 52.3775,7.22222222 C52.7425,7.22222222 53.1075,7.22222222 53.29,6.86111111 C53.655,6.5 53.655,6.13888889 53.655,5.77777778 L53.655,0.541666667 L55.6625,0.541666667 L55.6625,6.13888889 Z" id="Shape"></path>
                <polygon id="Shape" points="60.955 9.20833333 58.4 9.20833333 58.4 2.70833333 56.575 2.70833333 56.575 0.722222222 62.5975 0.722222222 62.5975 2.70833333 60.7725 2.70833333 60.7725 9.20833333"></polygon>
            </g>
        </g>
    </g>
</svg>